<svg width="1087" height="127" viewBox="0 0 1087 127" fill="none" xmlns="http://www.w3.org/2000/svg">
<path d="M86.6594 80.5H79.9394L64.7234 57.508V80.5H58.0034V46.948H64.7234L79.9394 69.988V46.948H86.6594V80.5ZM105.108 80.932C102.548 80.932 100.244 80.372 98.1963 79.252C96.1483 78.1 94.5323 76.484 93.3483 74.404C92.1963 72.324 91.6203 69.924 91.6203 67.204C91.6203 64.484 92.2123 62.084 93.3963 60.004C94.6123 57.924 96.2603 56.324 98.3403 55.204C100.42 54.052 102.74 53.476 105.3 53.476C107.86 53.476 110.18 54.052 112.26 55.204C114.34 56.324 115.972 57.924 117.156 60.004C118.372 62.084 118.98 64.484 118.98 67.204C118.98 69.924 118.356 72.324 117.108 74.404C115.892 76.484 114.228 78.1 112.116 79.252C110.036 80.372 107.7 80.932 105.108 80.932ZM105.108 75.076C106.324 75.076 107.46 74.788 108.516 74.212C109.604 73.604 110.468 72.708 111.108 71.524C111.748 70.34 112.068 68.9 112.068 67.204C112.068 64.676 111.396 62.74 110.052 61.396C108.74 60.02 107.124 59.332 105.204 59.332C103.284 59.332 101.668 60.02 100.356 61.396C99.0763 62.74 98.4363 64.676 98.4363 67.204C98.4363 69.732 99.0603 71.684 100.308 73.06C101.588 74.404 103.188 75.076 105.108 75.076ZM131.734 59.428V72.292C131.734 73.188 131.942 73.844 132.358 74.26C132.806 74.644 133.542 74.836 134.566 74.836H137.686V80.5H133.462C127.798 80.5 124.966 77.748 124.966 72.244V59.428H121.798V53.908H124.966V47.332H131.734V53.908H137.686V59.428H131.734ZM140.791 67.108C140.791 64.42 141.319 62.036 142.375 59.956C143.463 57.876 144.919 56.276 146.743 55.156C148.599 54.036 150.663 53.476 152.935 53.476C154.919 53.476 156.647 53.876 158.119 54.676C159.623 55.476 160.823 56.484 161.719 57.7V53.908H168.487V80.5H161.719V76.612C160.855 77.86 159.655 78.9 158.119 79.732C156.615 80.532 154.871 80.932 152.887 80.932C150.647 80.932 148.599 80.356 146.743 79.204C144.919 78.052 143.463 76.436 142.375 74.356C141.319 72.244 140.791 69.828 140.791 67.108ZM161.719 67.204C161.719 65.572 161.399 64.18 160.759 63.028C160.119 61.844 159.255 60.948 158.167 60.34C157.079 59.7 155.911 59.38 154.663 59.38C153.415 59.38 152.263 59.684 151.207 60.292C150.151 60.9 149.287 61.796 148.615 62.98C147.975 64.132 147.655 65.508 147.655 67.108C147.655 68.708 147.975 70.116 148.615 71.332C149.287 72.516 150.151 73.428 151.207 74.068C152.295 74.708 153.447 75.028 154.663 75.028C155.911 75.028 157.079 74.724 158.167 74.116C159.255 73.476 160.119 72.58 160.759 71.428C161.399 70.244 161.719 68.836 161.719 67.204ZM213.944 54.724V60.58H187.784V54.724H213.944ZM213.944 66.244V72.1H187.784V66.244H213.944Z" fill="white"/>
<path d="M669.387 79.9995L663.915 71.7435L659.067 79.9995H651.867L660.555 66.6555L651.771 53.4075H659.355L664.779 61.6155L669.675 53.4075H676.875L668.139 66.6555L676.971 79.9995H669.387ZM720.715 79.9995H713.995L698.779 57.0075V79.9995H692.059V46.4475H698.779L713.995 69.4875V46.4475H720.715V79.9995ZM739.163 80.4315C736.603 80.4315 734.299 79.8715 732.251 78.7515C730.203 77.5995 728.587 75.9835 727.403 73.9035C726.251 71.8235 725.675 69.4235 725.675 66.7035C725.675 63.9835 726.267 61.5835 727.451 59.5035C728.667 57.4235 730.315 55.8235 732.395 54.7035C734.475 53.5515 736.795 52.9755 739.355 52.9755C741.915 52.9755 744.235 53.5515 746.315 54.7035C748.395 55.8235 750.027 57.4235 751.211 59.5035C752.427 61.5835 753.035 63.9835 753.035 66.7035C753.035 69.4235 752.411 71.8235 751.163 73.9035C749.947 75.9835 748.283 77.5995 746.171 78.7515C744.091 79.8715 741.755 80.4315 739.163 80.4315ZM739.163 74.5755C740.379 74.5755 741.515 74.2875 742.571 73.7115C743.659 73.1035 744.523 72.2075 745.163 71.0235C745.803 69.8395 746.123 68.3995 746.123 66.7035C746.123 64.1755 745.451 62.2395 744.107 60.8955C742.795 59.5195 741.179 58.8315 739.259 58.8315C737.339 58.8315 735.723 59.5195 734.411 60.8955C733.131 62.2395 732.491 64.1755 732.491 66.7035C732.491 69.2315 733.115 71.1835 734.363 72.5595C735.643 73.9035 737.243 74.5755 739.163 74.5755ZM765.789 58.9275V71.7915C765.789 72.6875 765.997 73.3435 766.413 73.7595C766.861 74.1435 767.597 74.3355 768.621 74.3355H771.741V79.9995H767.517C761.853 79.9995 759.021 77.2475 759.021 71.7435V58.9275H755.853V53.4075H759.021V46.8315H765.789V53.4075H771.741V58.9275H765.789ZM774.846 66.6075C774.846 63.9195 775.374 61.5355 776.43 59.4555C777.518 57.3755 778.974 55.7755 780.798 54.6555C782.654 53.5355 784.718 52.9755 786.99 52.9755C788.974 52.9755 790.702 53.3755 792.174 54.1755C793.678 54.9755 794.878 55.9835 795.774 57.1995V53.4075H802.542V79.9995H795.774V76.1115C794.91 77.3595 793.71 78.3995 792.174 79.2315C790.67 80.0315 788.926 80.4315 786.942 80.4315C784.702 80.4315 782.654 79.8555 780.798 78.7035C778.974 77.5515 777.518 75.9355 776.43 73.8555C775.374 71.7435 774.846 69.3275 774.846 66.6075ZM795.774 66.7035C795.774 65.0715 795.454 63.6795 794.814 62.5275C794.174 61.3435 793.31 60.4475 792.222 59.8395C791.134 59.1995 789.966 58.8795 788.718 58.8795C787.47 58.8795 786.318 59.1835 785.262 59.7915C784.206 60.3995 783.342 61.2955 782.67 62.4795C782.03 63.6315 781.71 65.0075 781.71 66.6075C781.71 68.2075 782.03 69.6155 782.67 70.8315C783.342 72.0155 784.206 72.9275 785.262 73.5675C786.35 74.2075 787.502 74.5275 788.718 74.5275C789.966 74.5275 791.134 74.2235 792.222 73.6155C793.31 72.9755 794.174 72.0795 794.814 70.9275C795.454 69.7435 795.774 68.3355 795.774 66.7035ZM857.071 46.4955V79.9995H850.351V58.2075L841.375 79.9995H836.287L827.263 58.2075V79.9995H820.543V46.4955H828.175L838.831 71.4075L849.487 46.4955H857.071ZM861.987 66.6075C861.987 63.9195 862.515 61.5355 863.571 59.4555C864.659 57.3755 866.115 55.7755 867.939 54.6555C869.795 53.5355 871.859 52.9755 874.131 52.9755C876.115 52.9755 877.843 53.3755 879.315 54.1755C880.819 54.9755 882.019 55.9835 882.915 57.1995V53.4075H889.683V79.9995H882.915V76.1115C882.051 77.3595 880.851 78.3995 879.315 79.2315C877.811 80.0315 876.067 80.4315 874.083 80.4315C871.843 80.4315 869.795 79.8555 867.939 78.7035C866.115 77.5515 864.659 75.9355 863.571 73.8555C862.515 71.7435 861.987 69.3275 861.987 66.6075ZM882.915 66.7035C882.915 65.0715 882.595 63.6795 881.955 62.5275C881.315 61.3435 880.451 60.4475 879.363 59.8395C878.275 59.1995 877.107 58.8795 875.859 58.8795C874.611 58.8795 873.459 59.1835 872.403 59.7915C871.347 60.3995 870.483 61.2955 869.811 62.4795C869.171 63.6315 868.851 65.0075 868.851 66.6075C868.851 68.2075 869.171 69.6155 869.811 70.8315C870.483 72.0155 871.347 72.9275 872.403 73.5675C873.491 74.2075 874.643 74.5275 875.859 74.5275C877.107 74.5275 878.275 74.2235 879.363 73.6155C880.451 72.9755 881.315 72.0795 881.955 70.9275C882.595 69.7435 882.915 68.3355 882.915 66.7035ZM882.003 46.4955L870.963 51.5355V46.7355L882.003 41.0235V46.4955ZM910.934 79.9995L905.462 71.7435L900.614 79.9995H893.414L902.102 66.6555L893.318 53.4075H900.902L906.326 61.6155L911.222 53.4075H918.422L909.686 66.6555L918.518 79.9995H910.934ZM925.576 50.2395C924.392 50.2395 923.4 49.8715 922.6 49.1355C921.832 48.3675 921.448 47.4235 921.448 46.3035C921.448 45.1835 921.832 44.2555 922.6 43.5195C923.4 42.7515 924.392 42.3675 925.576 42.3675C926.76 42.3675 927.736 42.7515 928.504 43.5195C929.304 44.2555 929.704 45.1835 929.704 46.3035C929.704 47.4235 929.304 48.3675 928.504 49.1355C927.736 49.8715 926.76 50.2395 925.576 50.2395ZM928.888 53.4075V79.9995H922.168V53.4075H928.888ZM968.551 53.0235C971.815 53.0235 974.439 54.0315 976.423 56.0475C978.439 58.0315 979.447 60.8155 979.447 64.3995V79.9995H972.727V65.3115C972.727 63.2315 972.199 61.6475 971.143 60.5595C970.087 59.4395 968.647 58.8795 966.823 58.8795C964.999 58.8795 963.543 59.4395 962.455 60.5595C961.399 61.6475 960.871 63.2315 960.871 65.3115V79.9995H954.151V65.3115C954.151 63.2315 953.623 61.6475 952.567 60.5595C951.511 59.4395 950.071 58.8795 948.247 58.8795C946.391 58.8795 944.919 59.4395 943.831 60.5595C942.775 61.6475 942.247 63.2315 942.247 65.3115V79.9995H935.527V53.4075H942.247V56.6235C943.111 55.5035 944.215 54.6235 945.559 53.9835C946.935 53.3435 948.439 53.0235 950.071 53.0235C952.151 53.0235 954.007 53.4715 955.639 54.3675C957.271 55.2315 958.535 56.4795 959.431 58.1115C960.295 56.5755 961.543 55.3435 963.175 54.4155C964.839 53.4875 966.631 53.0235 968.551 53.0235ZM984.096 66.6075C984.096 63.9195 984.624 61.5355 985.68 59.4555C986.768 57.3755 988.224 55.7755 990.048 54.6555C991.904 53.5355 993.968 52.9755 996.24 52.9755C998.224 52.9755 999.952 53.3755 1001.42 54.1755C1002.93 54.9755 1004.13 55.9835 1005.02 57.1995V53.4075H1011.79V79.9995H1005.02V76.1115C1004.16 77.3595 1002.96 78.3995 1001.42 79.2315C999.92 80.0315 998.176 80.4315 996.192 80.4315C993.952 80.4315 991.904 79.8555 990.048 78.7035C988.224 77.5515 986.768 75.9355 985.68 73.8555C984.624 71.7435 984.096 69.3275 984.096 66.6075ZM1005.02 66.7035C1005.02 65.0715 1004.7 63.6795 1004.06 62.5275C1003.42 61.3435 1002.56 60.4475 1001.47 59.8395C1000.38 59.1995 999.216 58.8795 997.968 58.8795C996.72 58.8795 995.568 59.1835 994.512 59.7915C993.456 60.3995 992.592 61.2955 991.92 62.4795C991.28 63.6315 990.96 65.0075 990.96 66.6075C990.96 68.2075 991.28 69.6155 991.92 70.8315C992.592 72.0155 993.456 72.9275 994.512 73.5675C995.6 74.2075 996.752 74.5275 997.968 74.5275C999.216 74.5275 1000.38 74.2235 1001.47 73.6155C1002.56 72.9755 1003.42 72.0795 1004.06 70.9275C1004.7 69.7435 1005.02 68.3355 1005.02 66.7035Z" fill="white"/>
<path d="M262.543 49.8075H255.871L254.767 52.9995H251.239L257.263 36.2235H261.175L267.199 52.9995H263.647L262.543 49.8075ZM261.631 47.1195L259.207 40.1115L256.783 47.1195H261.631ZM268.587 46.3515C268.587 44.9755 268.867 43.7755 269.427 42.7515C269.987 41.7115 270.763 40.9115 271.755 40.3515C272.747 39.7755 273.883 39.4875 275.163 39.4875C276.811 39.4875 278.171 39.9035 279.243 40.7355C280.331 41.5515 281.059 42.7035 281.427 44.1915H277.803C277.611 43.6155 277.283 43.1675 276.819 42.8475C276.371 42.5115 275.811 42.3435 275.139 42.3435C274.179 42.3435 273.419 42.6955 272.859 43.3995C272.299 44.0875 272.019 45.0715 272.019 46.3515C272.019 47.6155 272.299 48.5995 272.859 49.3035C273.419 49.9915 274.179 50.3355 275.139 50.3355C276.499 50.3355 277.387 49.7275 277.803 48.5115H281.427C281.059 49.9515 280.331 51.0955 279.243 51.9435C278.155 52.7915 276.795 53.2155 275.163 53.2155C273.883 53.2155 272.747 52.9355 271.755 52.3755C270.763 51.7995 269.987 50.9995 269.427 49.9755C268.867 48.9355 268.587 47.7275 268.587 46.3515ZM296.248 46.0635C296.248 46.5435 296.216 46.9755 296.152 47.3595H286.432C286.512 48.3195 286.848 49.0715 287.44 49.6155C288.032 50.1595 288.76 50.4315 289.624 50.4315C290.872 50.4315 291.76 49.8955 292.288 48.8235H295.912C295.528 50.1035 294.792 51.1595 293.704 51.9915C292.616 52.8075 291.28 53.2155 289.696 53.2155C288.416 53.2155 287.264 52.9355 286.24 52.3755C285.232 51.7995 284.44 50.9915 283.864 49.9515C283.304 48.9115 283.024 47.7115 283.024 46.3515C283.024 44.9755 283.304 43.7675 283.864 42.7275C284.424 41.6875 285.208 40.8875 286.216 40.3275C287.224 39.7675 288.384 39.4875 289.696 39.4875C290.96 39.4875 292.088 39.7595 293.08 40.3035C294.088 40.8475 294.864 41.6235 295.408 42.6315C295.968 43.6235 296.248 44.7675 296.248 46.0635ZM292.768 45.1035C292.752 44.2395 292.44 43.5515 291.832 43.0395C291.224 42.5115 290.48 42.2475 289.6 42.2475C288.768 42.2475 288.064 42.5035 287.488 43.0155C286.928 43.5115 286.584 44.2075 286.456 45.1035H292.768ZM302.061 41.7675C302.493 41.0635 303.053 40.5115 303.741 40.1115C304.445 39.7115 305.245 39.5115 306.141 39.5115V43.0395H305.253C304.197 43.0395 303.397 43.2875 302.853 43.7835C302.325 44.2795 302.061 45.1435 302.061 46.3755V52.9995H298.701V39.7035H302.061V41.7675ZM312.316 42.4635V48.8955C312.316 49.3435 312.42 49.6715 312.628 49.8795C312.852 50.0715 313.22 50.1675 313.732 50.1675H315.292V52.9995H313.18C310.348 52.9995 308.932 51.6235 308.932 48.8715V42.4635H307.348V39.7035H308.932V36.4155H312.316V39.7035H315.292V42.4635H312.316ZM323.613 53.2155C322.333 53.2155 321.181 52.9355 320.157 52.3755C319.133 51.7995 318.325 50.9915 317.733 49.9515C317.157 48.9115 316.869 47.7115 316.869 46.3515C316.869 44.9915 317.165 43.7915 317.757 42.7515C318.365 41.7115 319.189 40.9115 320.229 40.3515C321.269 39.7755 322.429 39.4875 323.709 39.4875C324.989 39.4875 326.149 39.7755 327.189 40.3515C328.229 40.9115 329.045 41.7115 329.637 42.7515C330.245 43.7915 330.549 44.9915 330.549 46.3515C330.549 47.7115 330.237 48.9115 329.613 49.9515C329.005 50.9915 328.173 51.7995 327.117 52.3755C326.077 52.9355 324.909 53.2155 323.613 53.2155ZM323.613 50.2875C324.221 50.2875 324.789 50.1435 325.317 49.8555C325.861 49.5515 326.293 49.1035 326.613 48.5115C326.933 47.9195 327.093 47.1995 327.093 46.3515C327.093 45.0875 326.757 44.1195 326.085 43.4475C325.429 42.7595 324.621 42.4155 323.661 42.4155C322.701 42.4155 321.893 42.7595 321.237 43.4475C320.597 44.1195 320.277 45.0875 320.277 46.3515C320.277 47.6155 320.589 48.5915 321.213 49.2795C321.853 49.9515 322.653 50.2875 323.613 50.2875ZM338.101 53.2155C337.013 53.2155 336.037 53.0235 335.173 52.6395C334.309 52.2395 333.621 51.7035 333.109 51.0315C332.613 50.3595 332.341 49.6155 332.293 48.7995H335.677C335.741 49.3115 335.989 49.7355 336.421 50.0715C336.869 50.4075 337.421 50.5755 338.077 50.5755C338.717 50.5755 339.213 50.4475 339.565 50.1915C339.933 49.9355 340.117 49.6075 340.117 49.2075C340.117 48.7755 339.893 48.4555 339.445 48.2475C339.013 48.0235 338.317 47.7835 337.357 47.5275C336.365 47.2875 335.549 47.0395 334.909 46.7835C334.285 46.5275 333.741 46.1355 333.277 45.6075C332.829 45.0795 332.605 44.3675 332.605 43.4715C332.605 42.7355 332.813 42.0635 333.229 41.4555C333.661 40.8475 334.269 40.3675 335.053 40.0155C335.853 39.6635 336.789 39.4875 337.861 39.4875C339.445 39.4875 340.709 39.8875 341.653 40.6875C342.597 41.4715 343.117 42.5355 343.213 43.8795H339.997C339.949 43.3515 339.725 42.9355 339.325 42.6315C338.941 42.3115 338.421 42.1515 337.765 42.1515C337.157 42.1515 336.685 42.2635 336.349 42.4875C336.029 42.7115 335.869 43.0235 335.869 43.4235C335.869 43.8715 336.093 44.2155 336.541 44.4555C336.989 44.6795 337.685 44.9115 338.629 45.1515C339.589 45.3915 340.381 45.6395 341.005 45.8955C341.629 46.1515 342.165 46.5515 342.613 47.0955C343.077 47.6235 343.317 48.3275 343.333 49.2075C343.333 49.9755 343.117 50.6635 342.685 51.2715C342.269 51.8795 341.661 52.3595 340.861 52.7115C340.077 53.0475 339.157 53.2155 338.101 53.2155ZM362.034 43.0155V45.8475H351.858V43.0155H362.034ZM377.329 57.7275C375.777 56.2235 374.569 54.3035 373.705 51.9675C372.857 49.6315 372.433 47.1275 372.433 44.4555C372.433 41.7195 372.881 39.1515 373.777 36.7515C374.673 34.3355 375.977 32.3595 377.689 30.8235H381.073V31.1355C379.313 32.8155 377.969 34.8315 377.041 37.1835C376.129 39.5355 375.673 41.9595 375.673 44.4555C375.673 46.8875 376.105 49.2395 376.969 51.5115C377.849 53.7675 379.097 55.7275 380.713 57.3915V57.7275H377.329ZM386.53 38.9595V43.1595H392.17V45.8235H386.53V50.2635H392.89V52.9995H383.17V36.2235H392.89V38.9595H386.53ZM399.303 41.7675C399.735 41.0635 400.295 40.5115 400.983 40.1115C401.687 39.7115 402.487 39.5115 403.383 39.5115V43.0395H402.495C401.439 43.0395 400.639 43.2875 400.095 43.7835C399.567 44.2795 399.303 45.1435 399.303 46.3755V52.9995H395.943V39.7035H399.303V41.7675ZM409.006 41.7675C409.438 41.0635 409.998 40.5115 410.686 40.1115C411.39 39.7115 412.19 39.5115 413.086 39.5115V43.0395H412.198C411.142 43.0395 410.342 43.2875 409.798 43.7835C409.27 44.2795 409.006 45.1435 409.006 46.3755V52.9995H405.646V39.7035H409.006V41.7675ZM421.253 53.2155C419.973 53.2155 418.821 52.9355 417.797 52.3755C416.773 51.7995 415.965 50.9915 415.373 49.9515C414.797 48.9115 414.509 47.7115 414.509 46.3515C414.509 44.9915 414.805 43.7915 415.397 42.7515C416.005 41.7115 416.829 40.9115 417.869 40.3515C418.909 39.7755 420.069 39.4875 421.349 39.4875C422.629 39.4875 423.789 39.7755 424.829 40.3515C425.869 40.9115 426.685 41.7115 427.277 42.7515C427.885 43.7915 428.189 44.9915 428.189 46.3515C428.189 47.7115 427.877 48.9115 427.253 49.9515C426.645 50.9915 425.813 51.7995 424.757 52.3755C423.717 52.9355 422.549 53.2155 421.253 53.2155ZM421.253 50.2875C421.861 50.2875 422.429 50.1435 422.957 49.8555C423.501 49.5515 423.933 49.1035 424.253 48.5115C424.573 47.9195 424.733 47.1995 424.733 46.3515C424.733 45.0875 424.397 44.1195 423.725 43.4475C423.069 42.7595 422.261 42.4155 421.301 42.4155C420.341 42.4155 419.533 42.7595 418.877 43.4475C418.237 44.1195 417.917 45.0875 417.917 46.3515C417.917 47.6155 418.229 48.5915 418.853 49.2795C419.493 49.9515 420.293 50.2875 421.253 50.2875ZM435.742 53.2155C434.654 53.2155 433.678 53.0235 432.814 52.6395C431.95 52.2395 431.262 51.7035 430.75 51.0315C430.254 50.3595 429.982 49.6155 429.934 48.7995H433.318C433.382 49.3115 433.63 49.7355 434.062 50.0715C434.51 50.4075 435.062 50.5755 435.718 50.5755C436.358 50.5755 436.854 50.4475 437.206 50.1915C437.574 49.9355 437.758 49.6075 437.758 49.2075C437.758 48.7755 437.534 48.4555 437.086 48.2475C436.654 48.0235 435.958 47.7835 434.998 47.5275C434.006 47.2875 433.19 47.0395 432.55 46.7835C431.926 46.5275 431.382 46.1355 430.918 45.6075C430.47 45.0795 430.246 44.3675 430.246 43.4715C430.246 42.7355 430.454 42.0635 430.87 41.4555C431.302 40.8475 431.91 40.3675 432.694 40.0155C433.494 39.6635 434.43 39.4875 435.502 39.4875C437.086 39.4875 438.35 39.8875 439.294 40.6875C440.238 41.4715 440.758 42.5355 440.854 43.8795H437.638C437.59 43.3515 437.366 42.9355 436.966 42.6315C436.582 42.3115 436.062 42.1515 435.406 42.1515C434.798 42.1515 434.326 42.2635 433.99 42.4875C433.67 42.7115 433.51 43.0235 433.51 43.4235C433.51 43.8715 433.734 44.2155 434.182 44.4555C434.63 44.6795 435.326 44.9115 436.27 45.1515C437.23 45.3915 438.022 45.6395 438.646 45.8955C439.27 46.1515 439.806 46.5515 440.254 47.0955C440.718 47.6235 440.958 48.3275 440.974 49.2075C440.974 49.9755 440.758 50.6635 440.326 51.2715C439.91 51.8795 439.302 52.3595 438.502 52.7115C437.718 53.0475 436.798 53.2155 435.742 53.2155ZM456.795 52.9995L454.059 48.8715L451.635 52.9995H448.035L452.379 46.3275L447.987 39.7035H451.779L454.491 43.8075L456.939 39.7035H460.539L456.171 46.3275L460.587 52.9995H456.795ZM480.347 41.4315C480.347 42.3275 480.131 43.1675 479.699 43.9515C479.283 44.7355 478.619 45.3675 477.707 45.8475C476.811 46.3275 475.675 46.5675 474.299 46.5675H471.491V52.9995H468.131V36.2475H474.299C475.595 36.2475 476.699 36.4715 477.611 36.9195C478.523 37.3675 479.203 37.9835 479.651 38.7675C480.115 39.5515 480.347 40.4395 480.347 41.4315ZM474.155 43.8555C475.083 43.8555 475.771 43.6475 476.219 43.2315C476.667 42.7995 476.891 42.1995 476.891 41.4315C476.891 39.7995 475.979 38.9835 474.155 38.9835H471.491V43.8555H474.155ZM495.092 46.0635C495.092 46.5435 495.06 46.9755 494.996 47.3595H485.276C485.356 48.3195 485.692 49.0715 486.284 49.6155C486.876 50.1595 487.604 50.4315 488.468 50.4315C489.716 50.4315 490.604 49.8955 491.132 48.8235H494.756C494.372 50.1035 493.636 51.1595 492.548 51.9915C491.46 52.8075 490.124 53.2155 488.54 53.2155C487.26 53.2155 486.108 52.9355 485.084 52.3755C484.076 51.7995 483.284 50.9915 482.708 49.9515C482.148 48.9115 481.868 47.7115 481.868 46.3515C481.868 44.9755 482.148 43.7675 482.708 42.7275C483.268 41.6875 484.052 40.8875 485.06 40.3275C486.068 39.7675 487.228 39.4875 488.54 39.4875C489.804 39.4875 490.932 39.7595 491.924 40.3035C492.932 40.8475 493.708 41.6235 494.252 42.6315C494.812 43.6235 495.092 44.7675 495.092 46.0635ZM491.612 45.1035C491.596 44.2395 491.284 43.5515 490.676 43.0395C490.068 42.5115 489.324 42.2475 488.444 42.2475C487.612 42.2475 486.908 42.5035 486.332 43.0155C485.772 43.5115 485.428 44.2075 485.3 45.1035H491.612ZM502.633 53.2155C501.545 53.2155 500.569 53.0235 499.705 52.6395C498.841 52.2395 498.153 51.7035 497.641 51.0315C497.145 50.3595 496.873 49.6155 496.825 48.7995H500.209C500.273 49.3115 500.521 49.7355 500.953 50.0715C501.401 50.4075 501.953 50.5755 502.609 50.5755C503.249 50.5755 503.745 50.4475 504.097 50.1915C504.465 49.9355 504.649 49.6075 504.649 49.2075C504.649 48.7755 504.425 48.4555 503.977 48.2475C503.545 48.0235 502.849 47.7835 501.889 47.5275C500.897 47.2875 500.081 47.0395 499.441 46.7835C498.817 46.5275 498.273 46.1355 497.809 45.6075C497.361 45.0795 497.137 44.3675 497.137 43.4715C497.137 42.7355 497.345 42.0635 497.761 41.4555C498.193 40.8475 498.801 40.3675 499.585 40.0155C500.385 39.6635 501.321 39.4875 502.393 39.4875C503.977 39.4875 505.241 39.8875 506.185 40.6875C507.129 41.4715 507.649 42.5355 507.745 43.8795H504.529C504.481 43.3515 504.257 42.9355 503.857 42.6315C503.473 42.3115 502.953 42.1515 502.297 42.1515C501.689 42.1515 501.217 42.2635 500.881 42.4875C500.561 42.7115 500.401 43.0235 500.401 43.4235C500.401 43.8715 500.625 44.2155 501.073 44.4555C501.521 44.6795 502.217 44.9115 503.161 45.1515C504.121 45.3915 504.913 45.6395 505.537 45.8955C506.161 46.1515 506.697 46.5515 507.145 47.0955C507.609 47.6235 507.849 48.3275 507.865 49.2075C507.865 49.9755 507.649 50.6635 507.217 51.2715C506.801 51.8795 506.193 52.3595 505.393 52.7115C504.609 53.0475 503.689 53.2155 502.633 53.2155ZM516.527 53.2155C515.247 53.2155 514.095 52.9355 513.071 52.3755C512.047 51.7995 511.239 50.9915 510.647 49.9515C510.071 48.9115 509.783 47.7115 509.783 46.3515C509.783 44.9915 510.079 43.7915 510.671 42.7515C511.279 41.7115 512.103 40.9115 513.143 40.3515C514.183 39.7755 515.343 39.4875 516.623 39.4875C517.903 39.4875 519.063 39.7755 520.103 40.3515C521.143 40.9115 521.959 41.7115 522.551 42.7515C523.159 43.7915 523.463 44.9915 523.463 46.3515C523.463 47.7115 523.151 48.9115 522.527 49.9515C521.919 50.9915 521.087 51.7995 520.031 52.3755C518.991 52.9355 517.823 53.2155 516.527 53.2155ZM516.527 50.2875C517.135 50.2875 517.703 50.1435 518.231 49.8555C518.775 49.5515 519.207 49.1035 519.527 48.5115C519.847 47.9195 520.007 47.1995 520.007 46.3515C520.007 45.0875 519.671 44.1195 518.999 43.4475C518.343 42.7595 517.535 42.4155 516.575 42.4155C515.615 42.4155 514.807 42.7595 514.151 43.4475C513.511 44.1195 513.191 45.0875 513.191 46.3515C513.191 47.6155 513.503 48.5915 514.127 49.2795C514.767 49.9515 515.567 50.2875 516.527 50.2875ZM530.782 46.3035C530.782 44.9595 531.046 43.7675 531.574 42.7275C532.118 41.6875 532.854 40.8875 533.782 40.3275C534.71 39.7675 535.742 39.4875 536.878 39.4875C537.742 39.4875 538.566 39.6795 539.35 40.0635C540.134 40.4315 540.758 40.9275 541.222 41.5515V35.2395H544.63V52.9995H541.222V51.0315C540.806 51.6875 540.222 52.2155 539.47 52.6155C538.718 53.0155 537.846 53.2155 536.854 53.2155C535.734 53.2155 534.71 52.9275 533.782 52.3515C532.854 51.7755 532.118 50.9675 531.574 49.9275C531.046 48.8715 530.782 47.6635 530.782 46.3035ZM541.246 46.3515C541.246 45.5355 541.086 44.8395 540.766 44.2635C540.446 43.6715 540.014 43.2235 539.47 42.9195C538.926 42.5995 538.342 42.4395 537.718 42.4395C537.094 42.4395 536.518 42.5915 535.99 42.8955C535.462 43.1995 535.03 43.6475 534.694 44.2395C534.374 44.8155 534.214 45.5035 534.214 46.3035C534.214 47.1035 534.374 47.8075 534.694 48.4155C535.03 49.0075 535.462 49.4635 535.99 49.7835C536.534 50.1035 537.11 50.2635 537.718 50.2635C538.342 50.2635 538.926 50.1115 539.47 49.8075C540.014 49.4875 540.446 49.0395 540.766 48.4635C541.086 47.8715 541.246 47.1675 541.246 46.3515ZM553.816 53.2155C552.536 53.2155 551.384 52.9355 550.36 52.3755C549.336 51.7995 548.528 50.9915 547.936 49.9515C547.36 48.9115 547.072 47.7115 547.072 46.3515C547.072 44.9915 547.368 43.7915 547.96 42.7515C548.568 41.7115 549.392 40.9115 550.432 40.3515C551.472 39.7755 552.632 39.4875 553.912 39.4875C555.192 39.4875 556.352 39.7755 557.392 40.3515C558.432 40.9115 559.248 41.7115 559.84 42.7515C560.448 43.7915 560.752 44.9915 560.752 46.3515C560.752 47.7115 560.44 48.9115 559.816 49.9515C559.208 50.9915 558.376 51.7995 557.32 52.3755C556.28 52.9355 555.112 53.2155 553.816 53.2155ZM553.816 50.2875C554.424 50.2875 554.992 50.1435 555.52 49.8555C556.064 49.5515 556.496 49.1035 556.816 48.5115C557.136 47.9195 557.296 47.1995 557.296 46.3515C557.296 45.0875 556.96 44.1195 556.288 43.4475C555.632 42.7595 554.824 42.4155 553.864 42.4155C552.904 42.4155 552.096 42.7595 551.44 43.4475C550.8 44.1195 550.48 45.0875 550.48 46.3515C550.48 47.6155 550.792 48.5915 551.416 49.2795C552.056 49.9515 552.856 50.2875 553.816 50.2875ZM572.295 38.9595V43.1595H577.935V45.8235H572.295V50.2635H578.655V52.9995H568.935V36.2235H578.655V38.9595H572.295ZM585.069 41.7675C585.501 41.0635 586.061 40.5115 586.749 40.1115C587.453 39.7115 588.253 39.5115 589.149 39.5115V43.0395H588.261C587.205 43.0395 586.405 43.2875 585.861 43.7835C585.333 44.2795 585.069 45.1435 585.069 46.3755V52.9995H581.709V39.7035H585.069V41.7675ZM594.772 41.7675C595.204 41.0635 595.764 40.5115 596.452 40.1115C597.156 39.7115 597.956 39.5115 598.852 39.5115V43.0395H597.964C596.908 43.0395 596.108 43.2875 595.564 43.7835C595.036 44.2795 594.772 45.1435 594.772 46.3755V52.9995H591.412V39.7035H594.772V41.7675ZM607.019 53.2155C605.739 53.2155 604.587 52.9355 603.563 52.3755C602.539 51.7995 601.731 50.9915 601.139 49.9515C600.563 48.9115 600.275 47.7115 600.275 46.3515C600.275 44.9915 600.571 43.7915 601.163 42.7515C601.771 41.7115 602.595 40.9115 603.635 40.3515C604.675 39.7755 605.835 39.4875 607.115 39.4875C608.395 39.4875 609.555 39.7755 610.595 40.3515C611.635 40.9115 612.451 41.7115 613.043 42.7515C613.651 43.7915 613.955 44.9915 613.955 46.3515C613.955 47.7115 613.643 48.9115 613.019 49.9515C612.411 50.9915 611.579 51.7995 610.523 52.3755C609.483 52.9355 608.315 53.2155 607.019 53.2155ZM607.019 50.2875C607.627 50.2875 608.195 50.1435 608.723 49.8555C609.267 49.5515 609.699 49.1035 610.019 48.5115C610.339 47.9195 610.499 47.1995 610.499 46.3515C610.499 45.0875 610.163 44.1195 609.491 43.4475C608.835 42.7595 608.027 42.4155 607.067 42.4155C606.107 42.4155 605.299 42.7595 604.643 43.4475C604.003 44.1195 603.683 45.0875 603.683 46.3515C603.683 47.6155 603.995 48.5915 604.619 49.2795C605.259 49.9515 606.059 50.2875 607.019 50.2875ZM615.556 57.7275V57.3915C617.172 55.7275 618.412 53.7675 619.276 51.5115C620.156 49.2395 620.596 46.8875 620.596 44.4555C620.596 41.9595 620.132 39.5355 619.204 37.1835C618.292 34.8315 616.956 32.8155 615.196 31.1355V30.8235H618.58C620.292 32.3595 621.596 34.3355 622.492 36.7515C623.388 39.1515 623.836 41.7195 623.836 44.4555C623.836 47.1275 623.404 49.6315 622.54 51.9675C621.692 54.3035 620.492 56.2235 618.94 57.7275H615.556Z" fill="white"/>
<path d="M347.03 73.2485V75.9605H342.566V90.0005H339.206V75.9605H334.742V73.2485H347.03ZM361.842 83.0645C361.842 83.5445 361.81 83.9765 361.746 84.3605H352.026C352.106 85.3205 352.442 86.0725 353.034 86.6165C353.626 87.1605 354.354 87.4325 355.218 87.4325C356.466 87.4325 357.354 86.8965 357.882 85.8245H361.506C361.122 87.1045 360.386 88.1605 359.298 88.9925C358.21 89.8085 356.874 90.2165 355.29 90.2165C354.01 90.2165 352.858 89.9365 351.834 89.3765C350.826 88.8005 350.034 87.9925 349.458 86.9525C348.898 85.9125 348.618 84.7125 348.618 83.3525C348.618 81.9765 348.898 80.7685 349.458 79.7285C350.018 78.6885 350.802 77.8885 351.81 77.3285C352.818 76.7685 353.978 76.4885 355.29 76.4885C356.554 76.4885 357.682 76.7605 358.674 77.3045C359.682 77.8485 360.458 78.6245 361.002 79.6325C361.562 80.6245 361.842 81.7685 361.842 83.0645ZM358.362 82.1045C358.346 81.2405 358.034 80.5525 357.426 80.0405C356.818 79.5125 356.074 79.2485 355.194 79.2485C354.362 79.2485 353.658 79.5045 353.082 80.0165C352.522 80.5125 352.178 81.2085 352.05 82.1045H358.362ZM371.662 76.5125C373.246 76.5125 374.526 77.0165 375.502 78.0245C376.478 79.0165 376.966 80.4085 376.966 82.2005V90.0005H373.606V82.6565C373.606 81.6005 373.342 80.7925 372.814 80.2325C372.286 79.6565 371.566 79.3685 370.654 79.3685C369.726 79.3685 368.99 79.6565 368.446 80.2325C367.918 80.7925 367.654 81.6005 367.654 82.6565V90.0005H364.294V76.7045H367.654V78.3605C368.102 77.7845 368.67 77.3365 369.358 77.0165C370.062 76.6805 370.83 76.5125 371.662 76.5125ZM384.073 79.4645V85.8965C384.073 86.3445 384.177 86.6725 384.385 86.8805C384.609 87.0725 384.977 87.1685 385.489 87.1685H387.049V90.0005H384.937C382.105 90.0005 380.689 88.6245 380.689 85.8725V79.4645H379.105V76.7045H380.689V73.4165H384.073V76.7045H387.049V79.4645H384.073ZM388.602 83.3045C388.602 81.9605 388.866 80.7685 389.394 79.7285C389.938 78.6885 390.666 77.8885 391.578 77.3285C392.506 76.7685 393.538 76.4885 394.674 76.4885C395.666 76.4885 396.53 76.6885 397.266 77.0885C398.018 77.4885 398.618 77.9925 399.066 78.6005V76.7045H402.45V90.0005H399.066V88.0565C398.634 88.6805 398.034 89.2005 397.266 89.6165C396.514 90.0165 395.642 90.2165 394.65 90.2165C393.53 90.2165 392.506 89.9285 391.578 89.3525C390.666 88.7765 389.938 87.9685 389.394 86.9285C388.866 85.8725 388.602 84.6645 388.602 83.3045ZM399.066 83.3525C399.066 82.5365 398.906 81.8405 398.586 81.2645C398.266 80.6725 397.834 80.2245 397.29 79.9205C396.746 79.6005 396.162 79.4405 395.538 79.4405C394.914 79.4405 394.338 79.5925 393.81 79.8965C393.282 80.2005 392.85 80.6485 392.514 81.2405C392.194 81.8165 392.034 82.5045 392.034 83.3045C392.034 84.1045 392.194 84.8085 392.514 85.4165C392.85 86.0085 393.282 86.4645 393.81 86.7845C394.354 87.1045 394.93 87.2645 395.538 87.2645C396.162 87.2645 396.746 87.1125 397.29 86.8085C397.834 86.4885 398.266 86.0405 398.586 85.4645C398.906 84.8725 399.066 84.1685 399.066 83.3525ZM409.644 79.4645V85.8965C409.644 86.3445 409.748 86.6725 409.956 86.8805C410.18 87.0725 410.548 87.1685 411.06 87.1685H412.62V90.0005H410.508C407.676 90.0005 406.26 88.6245 406.26 85.8725V79.4645H404.676V76.7045H406.26V73.4165H409.644V76.7045H412.62V79.4645H409.644ZM416.74 75.1205C416.148 75.1205 415.652 74.9365 415.252 74.5685C414.868 74.1845 414.676 73.7125 414.676 73.1525C414.676 72.5925 414.868 72.1285 415.252 71.7605C415.652 71.3765 416.148 71.1845 416.74 71.1845C417.332 71.1845 417.82 71.3765 418.204 71.7605C418.604 72.1285 418.804 72.5925 418.804 73.1525C418.804 73.7125 418.604 74.1845 418.204 74.5685C417.82 74.9365 417.332 75.1205 416.74 75.1205ZM418.396 76.7045V90.0005H415.036V76.7045H418.396ZM427.26 86.9045L430.62 76.7045H434.196L429.276 90.0005H425.196L420.3 76.7045H423.9L427.26 86.9045ZM435.219 83.3045C435.219 81.9605 435.483 80.7685 436.011 79.7285C436.555 78.6885 437.283 77.8885 438.195 77.3285C439.123 76.7685 440.155 76.4885 441.291 76.4885C442.283 76.4885 443.147 76.6885 443.883 77.0885C444.635 77.4885 445.235 77.9925 445.683 78.6005V76.7045H449.067V90.0005H445.683V88.0565C445.251 88.6805 444.651 89.2005 443.883 89.6165C443.131 90.0165 442.259 90.2165 441.267 90.2165C440.147 90.2165 439.123 89.9285 438.195 89.3525C437.283 88.7765 436.555 87.9685 436.011 86.9285C435.483 85.8725 435.219 84.6645 435.219 83.3045ZM445.683 83.3525C445.683 82.5365 445.523 81.8405 445.203 81.2645C444.883 80.6725 444.451 80.2245 443.907 79.9205C443.363 79.6005 442.779 79.4405 442.155 79.4405C441.531 79.4405 440.955 79.5925 440.427 79.8965C439.899 80.2005 439.467 80.6485 439.131 81.2405C438.811 81.8165 438.651 82.5045 438.651 83.3045C438.651 84.1045 438.811 84.8085 439.131 85.4165C439.467 86.0085 439.899 86.4645 440.427 86.7845C440.971 87.1045 441.547 87.2645 442.155 87.2645C442.779 87.2645 443.363 87.1125 443.907 86.8085C444.451 86.4885 444.883 86.0405 445.203 85.4645C445.523 84.8725 445.683 84.1685 445.683 83.3525ZM457.437 90.2165C456.349 90.2165 455.373 90.0245 454.509 89.6405C453.645 89.2405 452.957 88.7045 452.445 88.0325C451.949 87.3605 451.677 86.6165 451.629 85.8005H455.013C455.077 86.3125 455.325 86.7365 455.757 87.0725C456.205 87.4085 456.757 87.5765 457.413 87.5765C458.053 87.5765 458.549 87.4485 458.901 87.1925C459.269 86.9365 459.453 86.6085 459.453 86.2085C459.453 85.7765 459.229 85.4565 458.781 85.2485C458.349 85.0245 457.653 84.7845 456.693 84.5285C455.701 84.2885 454.885 84.0405 454.245 83.7845C453.621 83.5285 453.077 83.1365 452.613 82.6085C452.165 82.0805 451.941 81.3685 451.941 80.4725C451.941 79.7365 452.149 79.0645 452.565 78.4565C452.997 77.8485 453.605 77.3685 454.389 77.0165C455.189 76.6645 456.125 76.4885 457.197 76.4885C458.781 76.4885 460.045 76.8885 460.989 77.6885C461.933 78.4725 462.453 79.5365 462.549 80.8805H459.333C459.285 80.3525 459.061 79.9365 458.661 79.6325C458.277 79.3125 457.757 79.1525 457.101 79.1525C456.493 79.1525 456.021 79.2645 455.685 79.4885C455.365 79.7125 455.205 80.0245 455.205 80.4245C455.205 80.8725 455.429 81.2165 455.877 81.4565C456.325 81.6805 457.021 81.9125 457.965 82.1525C458.925 82.3925 459.717 82.6405 460.341 82.8965C460.965 83.1525 461.501 83.5525 461.949 84.0965C462.413 84.6245 462.653 85.3285 462.669 86.2085C462.669 86.9765 462.453 87.6645 462.021 88.2725C461.605 88.8805 460.997 89.3605 460.197 89.7125C459.413 90.0485 458.493 90.2165 457.437 90.2165ZM482.546 73.2485V75.9605H478.082V90.0005H474.722V75.9605H470.258V73.2485H482.546ZM490.901 90.2165C489.621 90.2165 488.469 89.9365 487.445 89.3765C486.421 88.8005 485.613 87.9925 485.021 86.9525C484.445 85.9125 484.157 84.7125 484.157 83.3525C484.157 81.9925 484.453 80.7925 485.045 79.7525C485.653 78.7125 486.477 77.9125 487.517 77.3525C488.557 76.7765 489.717 76.4885 490.997 76.4885C492.277 76.4885 493.437 76.7765 494.477 77.3525C495.517 77.9125 496.333 78.7125 496.925 79.7525C497.533 80.7925 497.837 81.9925 497.837 83.3525C497.837 84.7125 497.525 85.9125 496.901 86.9525C496.293 87.9925 495.461 88.8005 494.405 89.3765C493.365 89.9365 492.197 90.2165 490.901 90.2165ZM490.901 87.2885C491.509 87.2885 492.077 87.1445 492.605 86.8565C493.149 86.5525 493.581 86.1045 493.901 85.5125C494.221 84.9205 494.381 84.2005 494.381 83.3525C494.381 82.0885 494.045 81.1205 493.373 80.4485C492.717 79.7605 491.909 79.4165 490.949 79.4165C489.989 79.4165 489.181 79.7605 488.525 80.4485C487.885 81.1205 487.565 82.0885 487.565 83.3525C487.565 84.6165 487.877 85.5925 488.501 86.2805C489.141 86.9525 489.941 87.2885 490.901 87.2885ZM504.214 79.4645V85.8965C504.214 86.3445 504.318 86.6725 504.526 86.8805C504.75 87.0725 505.118 87.1685 505.63 87.1685H507.19V90.0005H505.078C502.246 90.0005 500.83 88.6245 500.83 85.8725V79.4645H499.246V76.7045H500.83V73.4165H504.214V76.7045H507.19V79.4645H504.214ZM508.743 83.3045C508.743 81.9605 509.007 80.7685 509.535 79.7285C510.079 78.6885 510.807 77.8885 511.719 77.3285C512.647 76.7685 513.679 76.4885 514.815 76.4885C515.807 76.4885 516.671 76.6885 517.407 77.0885C518.159 77.4885 518.759 77.9925 519.207 78.6005V76.7045H522.591V90.0005H519.207V88.0565C518.775 88.6805 518.175 89.2005 517.407 89.6165C516.655 90.0165 515.783 90.2165 514.791 90.2165C513.671 90.2165 512.647 89.9285 511.719 89.3525C510.807 88.7765 510.079 87.9685 509.535 86.9285C509.007 85.8725 508.743 84.6645 508.743 83.3045ZM519.207 83.3525C519.207 82.5365 519.047 81.8405 518.727 81.2645C518.407 80.6725 517.975 80.2245 517.431 79.9205C516.887 79.6005 516.303 79.4405 515.679 79.4405C515.055 79.4405 514.479 79.5925 513.951 79.8965C513.423 80.2005 512.991 80.6485 512.655 81.2405C512.335 81.8165 512.175 82.5045 512.175 83.3045C512.175 84.1045 512.335 84.8085 512.655 85.4165C512.991 86.0085 513.423 86.4645 513.951 86.7845C514.495 87.1045 515.071 87.2645 515.679 87.2645C516.303 87.2645 516.887 87.1125 517.431 86.8085C517.975 86.4885 518.407 86.0405 518.727 85.4645C519.047 84.8725 519.207 84.1685 519.207 83.3525ZM527.576 75.1205C526.984 75.1205 526.488 74.9365 526.088 74.5685C525.704 74.1845 525.512 73.7125 525.512 73.1525C525.512 72.5925 525.704 72.1285 526.088 71.7605C526.488 71.3765 526.984 71.1845 527.576 71.1845C528.168 71.1845 528.656 71.3765 529.04 71.7605C529.44 72.1285 529.64 72.5925 529.64 73.1525C529.64 73.7125 529.44 74.1845 529.04 74.5685C528.656 74.9365 528.168 75.1205 527.576 75.1205ZM529.232 76.7045V90.0005H525.872V76.7045H529.232ZM537.64 90.2165C536.552 90.2165 535.576 90.0245 534.712 89.6405C533.848 89.2405 533.16 88.7045 532.648 88.0325C532.152 87.3605 531.88 86.6165 531.832 85.8005H535.216C535.28 86.3125 535.528 86.7365 535.96 87.0725C536.408 87.4085 536.96 87.5765 537.616 87.5765C538.256 87.5765 538.752 87.4485 539.104 87.1925C539.472 86.9365 539.656 86.6085 539.656 86.2085C539.656 85.7765 539.432 85.4565 538.984 85.2485C538.552 85.0245 537.856 84.7845 536.896 84.5285C535.904 84.2885 535.088 84.0405 534.448 83.7845C533.824 83.5285 533.28 83.1365 532.816 82.6085C532.368 82.0805 532.144 81.3685 532.144 80.4725C532.144 79.7365 532.352 79.0645 532.768 78.4565C533.2 77.8485 533.808 77.3685 534.592 77.0165C535.392 76.6645 536.328 76.4885 537.4 76.4885C538.984 76.4885 540.248 76.8885 541.192 77.6885C542.136 78.4725 542.656 79.5365 542.752 80.8805H539.536C539.488 80.3525 539.264 79.9365 538.864 79.6325C538.48 79.3125 537.96 79.1525 537.304 79.1525C536.696 79.1525 536.224 79.2645 535.888 79.4885C535.568 79.7125 535.408 80.0245 535.408 80.4245C535.408 80.8725 535.632 81.2165 536.08 81.4565C536.528 81.6805 537.224 81.9125 538.168 82.1525C539.128 82.3925 539.92 82.6405 540.544 82.8965C541.168 83.1525 541.704 83.5525 542.152 84.0965C542.616 84.6245 542.856 85.3285 542.872 86.2085C542.872 86.9765 542.656 87.6645 542.224 88.2725C541.808 88.8805 541.2 89.3605 540.4 89.7125C539.616 90.0485 538.696 90.2165 537.64 90.2165Z" fill="white"/>
<line x1="250.615" y1="60.4995" x2="623.416" y2="60.4995" stroke="white"/>
</svg>
