<svg width="1378" height="1366" viewBox="0 0 1378 1366" fill="none" xmlns="http://www.w3.org/2000/svg">
    <g opacity="0.2">
    <path d="M479.732 326.796L445.654 361.764L338.624 253.662L538.511 53.7745C573.999 18.2873 609.526 0.712868 645.091 0.914307C680.657 1.11575 716.381 19.0952 752.26 54.9743L752.261 54.9746L1321.18 622.638C1357.96 659.417 1376.42 696.011 1376.69 732.403C1376.96 768.793 1359.04 805.099 1322.8 841.306L1123.11 1035.01L1014.68 923.188L1044.87 893.003L1045.22 892.649L1044.87 892.296L480.444 326.792L480.086 326.433L479.732 326.796Z" stroke="#981DB9"/>
    <path d="M248.961 327.488L363.664 439.985L333.487 470.162L333.134 470.515L333.486 470.868L900.31 1038.83L900.668 1039.19L901.022 1038.83L935.1 1003.86L1042.61 1112.44L842.722 1312.33C807.236 1347.82 771.679 1365.36 736.039 1365.08C700.398 1364.81 664.553 1346.71 628.494 1310.65L628.493 1310.65L57.1708 740.526C20.2412 703.597 1.66193 666.897 1.31122 630.43C0.960526 593.966 18.835 557.615 55.0712 521.378L248.961 327.488Z" stroke="#981DB9"/>
    </g>
</svg>
