<svg width="167" height="59" viewBox="0 0 167 59" fill="none" xmlns="http://www.w3.org/2000/svg">
<mask id="path-1-outside-1_6961_377" maskUnits="userSpaceOnUse" x="0.0410156" y="0.654785" width="167" height="59" fill="black">
<rect fill="white" x="0.0410156" y="0.654785" width="167" height="59"/>
<path d="M56.7182 27.3214C59.8236 30.3618 59.8464 33.3824 56.7865 36.3758L48.3527 44.3853L43.7527 39.7405L45.0399 38.4803L21.2459 15.1401L19.7943 16.5984L15.2525 12.1071L23.6938 3.84261C26.6905 0.908686 29.7049 0.926017 32.7345 3.89213L56.7182 27.3214Z"/>
<path d="M3.40224 32.2166C0.284153 29.1638 0.253807 26.1382 3.31373 23.1424L11.5022 15.1255L16.3677 19.7975L15.0805 21.0577L38.9757 44.4994L40.4273 43.0411L44.9893 47.5522L36.548 55.8167C33.5513 58.7506 30.5318 58.7283 27.4871 55.7474L3.40224 32.2166Z"/>
<path d="M78.5583 19.4915H93.2984C95.3666 19.4915 97.2601 19.6055 98.9206 19.8622C100.61 20.1189 102.008 20.4612 103.115 20.946C104.251 21.4308 105.213 21.9442 105.999 22.5431C106.786 23.1135 107.398 23.7695 107.835 24.511C108.242 25.2526 108.563 25.9656 108.738 26.6786C108.941 27.3916 109.029 28.1331 109.029 28.9317V29.7588C109.029 30.7 108.912 31.5841 108.65 32.4112C108.417 33.2668 107.951 34.1224 107.252 35.0065C106.524 35.9192 105.621 36.6892 104.514 37.3167C103.378 37.9441 101.863 38.4575 99.9401 38.8568C98.0466 39.2846 95.8327 39.4842 93.3275 39.4842H78.5583V19.4915ZM85.5205 24.1973V34.6643L104.164 23.5128C110.136 23.5128 105.598 36.0528 105.598 32.6018L101.717 29.3595C101.717 25.9085 98.7458 24.1973 92.774 24.1973H85.5205Z"/>
<path d="M111.643 19.4915H135.093V24.0262H118.518V26.9923H134.714V31.5556H118.518V34.8354H135.414V39.4842H111.643V19.4915Z"/>
<path d="M150.733 39.855C148.519 39.855 146.567 39.6839 144.936 39.3416C143.275 38.9994 141.993 38.6001 141.09 38.1152C140.216 37.6304 139.488 37.0315 138.964 36.347C138.44 35.6625 138.09 35.035 137.944 34.4932C137.799 33.9513 137.74 33.3523 137.74 32.7249V32.4397H144.994C145.14 34.5502 146.713 35.6054 150.966 35.6054H152.568C153.966 35.6054 154.549 35.5199 155.481 35.4058C156.384 35.2917 157.054 35.1491 157.462 34.921C157.899 34.6928 158.161 34.4932 158.307 34.265C158.452 34.0368 158.51 33.7801 158.51 33.4664C158.51 33.0386 158.394 32.6964 158.161 32.4397C157.928 32.2115 157.345 31.9834 156.471 31.7837C155.597 31.6126 154.345 31.4985 152.684 31.47L150.5 31.413L148.868 31.3844C141.644 31.2133 138.032 29.2454 138.032 25.5378V25.2811C138.032 24.6536 138.119 24.0547 138.294 23.5128C138.469 22.9709 138.818 22.4291 139.372 21.8587C139.896 21.3168 140.595 20.8604 141.469 20.4897C142.343 20.1189 143.508 19.8052 144.994 19.577C146.45 19.3203 148.169 19.2063 150.121 19.2063H152.189C154.199 19.2063 156.005 19.3203 157.549 19.577C159.122 19.8337 160.346 20.1474 161.278 20.5467C162.21 20.946 162.967 21.4308 163.55 22.0013C164.133 22.5717 164.54 23.1421 164.744 23.684C164.977 24.2544 165.094 24.8533 165.094 25.5093V25.7659H157.87C157.811 25.5663 157.753 25.3667 157.695 25.2241C157.637 25.0815 157.462 24.8818 157.2 24.6251C156.937 24.3684 156.617 24.1688 156.18 23.9977C155.772 23.8551 155.131 23.7125 154.316 23.5699C153.5 23.4558 152.859 23.3988 151.752 23.3988H150.733C149.043 23.3988 147.994 23.4843 147.091 23.6554C146.217 23.8551 145.664 24.0547 145.489 24.2544C145.285 24.454 145.198 24.7392 145.198 25.11C145.198 25.4522 145.285 25.7089 145.518 25.9371C145.722 26.1367 146.217 26.3363 147.004 26.536C147.79 26.7071 148.897 26.7927 150.325 26.8212L151.956 26.8497L154.053 26.8782C158.219 26.9353 161.19 27.4486 163.026 28.3898C164.89 29.331 165.793 30.7855 165.793 32.8105V33.1812C165.793 33.9227 165.706 34.5787 165.531 35.1491C165.356 35.7195 164.977 36.3185 164.424 36.9459C163.87 37.5448 163.142 38.0582 162.21 38.4575C161.278 38.8853 160.025 39.199 158.423 39.4557C156.821 39.7409 154.927 39.855 152.772 39.855H150.733Z"/>
</mask>
<path d="M56.7182 27.3214C59.8236 30.3618 59.8464 33.3824 56.7865 36.3758L48.3527 44.3853L43.7527 39.7405L45.0399 38.4803L21.2459 15.1401L19.7943 16.5984L15.2525 12.1071L23.6938 3.84261C26.6905 0.908686 29.7049 0.926017 32.7345 3.89213L56.7182 27.3214Z" stroke="url(#paint0_linear_6961_377)" stroke-width="2" mask="url(#path-1-outside-1_6961_377)"/>
<path d="M3.40224 32.2166C0.284153 29.1638 0.253807 26.1382 3.31373 23.1424L11.5022 15.1255L16.3677 19.7975L15.0805 21.0577L38.9757 44.4994L40.4273 43.0411L44.9893 47.5522L36.548 55.8167C33.5513 58.7506 30.5318 58.7283 27.4871 55.7474L3.40224 32.2166Z" stroke="url(#paint1_linear_6961_377)" stroke-width="2" mask="url(#path-1-outside-1_6961_377)"/>
<path d="M78.5583 19.4915H93.2984C95.3666 19.4915 97.2601 19.6055 98.9206 19.8622C100.61 20.1189 102.008 20.4612 103.115 20.946C104.251 21.4308 105.213 21.9442 105.999 22.5431C106.786 23.1135 107.398 23.7695 107.835 24.511C108.242 25.2526 108.563 25.9656 108.738 26.6786C108.941 27.3916 109.029 28.1331 109.029 28.9317V29.7588C109.029 30.7 108.912 31.5841 108.65 32.4112C108.417 33.2668 107.951 34.1224 107.252 35.0065C106.524 35.9192 105.621 36.6892 104.514 37.3167C103.378 37.9441 101.863 38.4575 99.9401 38.8568C98.0466 39.2846 95.8327 39.4842 93.3275 39.4842H78.5583V19.4915ZM85.5205 24.1973V34.6643L104.164 23.5128C110.136 23.5128 105.598 36.0528 105.598 32.6018L101.717 29.3595C101.717 25.9085 98.7458 24.1973 92.774 24.1973H85.5205Z" stroke="url(#paint2_linear_6961_377)" stroke-width="2" mask="url(#path-1-outside-1_6961_377)"/>
<path d="M111.643 19.4915H135.093V24.0262H118.518V26.9923H134.714V31.5556H118.518V34.8354H135.414V39.4842H111.643V19.4915Z" stroke="url(#paint3_linear_6961_377)" stroke-width="2" mask="url(#path-1-outside-1_6961_377)"/>
<path d="M150.733 39.855C148.519 39.855 146.567 39.6839 144.936 39.3416C143.275 38.9994 141.993 38.6001 141.09 38.1152C140.216 37.6304 139.488 37.0315 138.964 36.347C138.44 35.6625 138.09 35.035 137.944 34.4932C137.799 33.9513 137.74 33.3523 137.74 32.7249V32.4397H144.994C145.14 34.5502 146.713 35.6054 150.966 35.6054H152.568C153.966 35.6054 154.549 35.5199 155.481 35.4058C156.384 35.2917 157.054 35.1491 157.462 34.921C157.899 34.6928 158.161 34.4932 158.307 34.265C158.452 34.0368 158.51 33.7801 158.51 33.4664C158.51 33.0386 158.394 32.6964 158.161 32.4397C157.928 32.2115 157.345 31.9834 156.471 31.7837C155.597 31.6126 154.345 31.4985 152.684 31.47L150.5 31.413L148.868 31.3844C141.644 31.2133 138.032 29.2454 138.032 25.5378V25.2811C138.032 24.6536 138.119 24.0547 138.294 23.5128C138.469 22.9709 138.818 22.4291 139.372 21.8587C139.896 21.3168 140.595 20.8604 141.469 20.4897C142.343 20.1189 143.508 19.8052 144.994 19.577C146.45 19.3203 148.169 19.2063 150.121 19.2063H152.189C154.199 19.2063 156.005 19.3203 157.549 19.577C159.122 19.8337 160.346 20.1474 161.278 20.5467C162.21 20.946 162.967 21.4308 163.55 22.0013C164.133 22.5717 164.54 23.1421 164.744 23.684C164.977 24.2544 165.094 24.8533 165.094 25.5093V25.7659H157.87C157.811 25.5663 157.753 25.3667 157.695 25.2241C157.637 25.0815 157.462 24.8818 157.2 24.6251C156.937 24.3684 156.617 24.1688 156.18 23.9977C155.772 23.8551 155.131 23.7125 154.316 23.5699C153.5 23.4558 152.859 23.3988 151.752 23.3988H150.733C149.043 23.3988 147.994 23.4843 147.091 23.6554C146.217 23.8551 145.664 24.0547 145.489 24.2544C145.285 24.454 145.198 24.7392 145.198 25.11C145.198 25.4522 145.285 25.7089 145.518 25.9371C145.722 26.1367 146.217 26.3363 147.004 26.536C147.79 26.7071 148.897 26.7927 150.325 26.8212L151.956 26.8497L154.053 26.8782C158.219 26.9353 161.19 27.4486 163.026 28.3898C164.89 29.331 165.793 30.7855 165.793 32.8105V33.1812C165.793 33.9227 165.706 34.5787 165.531 35.1491C165.356 35.7195 164.977 36.3185 164.424 36.9459C163.87 37.5448 163.142 38.0582 162.21 38.4575C161.278 38.8853 160.025 39.199 158.423 39.4557C156.821 39.7409 154.927 39.855 152.772 39.855H150.733Z" stroke="url(#paint4_linear_6961_377)" stroke-width="2" mask="url(#path-1-outside-1_6961_377)"/>
<defs>
<linearGradient id="paint0_linear_6961_377" x1="1.04102" y1="30.1229" x2="165.793" y2="30.1229" gradientUnits="userSpaceOnUse">
<stop stop-color="#981DB9"/>
<stop offset="1" stop-color="#0F76CE"/>
</linearGradient>
<linearGradient id="paint1_linear_6961_377" x1="1.04102" y1="30.1229" x2="165.793" y2="30.1229" gradientUnits="userSpaceOnUse">
<stop stop-color="#981DB9"/>
<stop offset="1" stop-color="#0F76CE"/>
</linearGradient>
<linearGradient id="paint2_linear_6961_377" x1="1.04102" y1="30.1229" x2="165.793" y2="30.1229" gradientUnits="userSpaceOnUse">
<stop stop-color="#981DB9"/>
<stop offset="1" stop-color="#0F76CE"/>
</linearGradient>
<linearGradient id="paint3_linear_6961_377" x1="1.04102" y1="30.1229" x2="165.793" y2="30.1229" gradientUnits="userSpaceOnUse">
<stop stop-color="#981DB9"/>
<stop offset="1" stop-color="#0F76CE"/>
</linearGradient>
<linearGradient id="paint4_linear_6961_377" x1="1.04102" y1="30.1229" x2="165.793" y2="30.1229" gradientUnits="userSpaceOnUse">
<stop stop-color="#981DB9"/>
<stop offset="1" stop-color="#0F76CE"/>
</linearGradient>
</defs>
</svg>
